<?xml version="1.0" standalone="no"?>
<!DOCTYPE svg PUBLIC "-//W3C//DTD SVG 20010904//EN"
 "http://www.w3.org/TR/2001/REC-SVG-20010904/DTD/svg10.dtd">
<svg version="1.0" xmlns="http://www.w3.org/2000/svg"
 width="340.000000pt" height="340.000000pt" viewBox="0 0 340.000000 340.000000"
 preserveAspectRatio="xMidYMid meet">
<metadata>
Created by potrace 1.11, written by Peter Selinger 2001-2013
</metadata>
<g transform="translate(0.000000,340.000000) scale(0.100000,-0.100000)"
fill="#000000" stroke="none">
<path d="M1564 3298 c-3 -5 -9 -6 -15 -3 -5 3 -35 1 -66 -4 -32 -6 -71 -12
-88 -15 -16 -3 -50 -10 -75 -17 -25 -6 -49 -12 -55 -13 -52 -13 -72 -20 -82
-29 -7 -5 -13 -7 -13 -4 0 8 -95 -34 -202 -88 -197 -101 -378 -253 -519 -435
-33 -41 -63 -80 -68 -86 -5 -6 -12 -20 -15 -32 -4 -12 -12 -22 -17 -22 -5 0
-9 -5 -9 -11 0 -6 -9 -24 -21 -40 -11 -16 -22 -36 -23 -43 -1 -8 -6 -20 -12
-27 -5 -8 -19 -36 -31 -64 -46 -109 -58 -140 -59 -145 0 -3 -6 -25 -13 -50 -7
-25 -15 -56 -18 -69 -2 -14 -6 -28 -8 -32 -3 -4 -7 -24 -11 -44 -3 -21 -8 -47
-10 -59 -9 -47 -18 -166 -18 -256 0 -176 24 -324 84 -506 28 -82 140 -320 158
-334 4 -3 20 -25 36 -50 105 -163 328 -373 501 -471 85 -47 151 -81 185 -93
19 -8 67 -25 105 -39 39 -14 93 -31 120 -37 28 -7 59 -14 70 -17 11 -2 38 -7
60 -10 22 -2 58 -9 79 -13 76 -17 382 -4 496 19 306 65 582 209 795 418 76 74
135 141 135 152 0 5 3 11 8 13 45 20 231 355 257 463 1 6 5 17 8 25 9 21 58
221 61 245 1 12 5 25 8 30 7 11 2 370 -5 425 -15 109 -92 384 -117 415 -4 5
-11 21 -15 35 -4 14 -18 41 -31 61 -13 20 -20 40 -17 43 4 3 1 6 -5 6 -7 0
-12 5 -12 11 0 11 -90 150 -132 203 -82 104 -325 326 -357 326 -6 0 -11 3 -11
8 0 8 -34 29 -165 100 -26 14 -158 72 -175 77 -3 1 -23 7 -45 14 -51 16 -186
50 -194 49 -3 0 -8 1 -11 2 -52 20 -416 35 -426 18z"/>
</g>
</svg>
